<svg width="40" height="28" viewBox="0 0 40 28" fill="none" xmlns="http://www.w3.org/2000/svg">
<path d="M0 2.96875C0 1.59543 1.09509 0.472623 2.46798 0.4383L20 0L37.532 0.4383C38.9049 0.472623 40 1.59543 40 2.96875V2.96875C40 4.36672 38.8667 5.5 37.4688 5.5H2.53125C1.13328 5.5 0 4.36672 0 2.96875V2.96875Z" fill="#CF7F53"/>
<rect x="1.60001" y="9.5" width="36.8" height="2" rx="1" fill="#657332"/>
<rect x="1.60001" y="16.5" width="36.8" height="2" rx="1" fill="#CD3C3C"/>
<rect y="12.5" width="40" height="3" rx="1.5" fill="#FF924E"/>
<rect x="1.60001" y="19.5" width="36.8" height="2" rx="1" fill="#FEDA7F"/>
<rect x="1.60001" y="6.5" width="36.8" height="2" rx="1" fill="#FEDA7F"/>
<path d="M0 25.0312C0 23.6333 1.13328 22.5 2.53125 22.5H37.4688C38.8667 22.5 40 23.6333 40 25.0312V25.0312C40 26.4046 38.9049 27.5274 37.532 27.5617L20 28L2.46799 27.5617C1.09509 27.5274 0 26.4046 0 25.0312V25.0312Z" fill="#BC7751"/>
</svg>
